<svg width="39" height="39" viewBox="0 0 39 39" fill="none" xmlns="http://www.w3.org/2000/svg">
<path d="M28.8454 18.6886C28.771 18.4957 28.6594 18.3195 28.517 18.17L20.6984 10.3129C20.5526 10.1663 20.3795 10.0501 20.189 9.97082C19.9985 9.89153 19.7944 9.85072 19.5882 9.85072C19.1717 9.85072 18.7724 10.017 18.4779 10.3129C18.3321 10.4594 18.2165 10.6333 18.1376 10.8248C18.0587 11.0162 18.018 11.2214 18.018 11.4286C18.018 11.847 18.1835 12.2484 18.4779 12.5443L23.6382 17.7143H11.7695C11.3548 17.7143 10.9571 17.8798 10.6638 18.1745C10.3706 18.4692 10.2058 18.8689 10.2058 19.2857C10.2058 19.7025 10.3706 20.1022 10.6638 20.3969C10.9571 20.6916 11.3548 20.8571 11.7695 20.8571H23.6382L18.4779 26.0271C18.3314 26.1732 18.215 26.347 18.1356 26.5385C18.0562 26.73 18.0154 26.9354 18.0154 27.1429C18.0154 27.3503 18.0562 27.5557 18.1356 27.7472C18.215 27.9387 18.3314 28.1125 18.4779 28.2586C18.6233 28.4059 18.7962 28.5228 18.9868 28.6025C19.1773 28.6823 19.3817 28.7234 19.5882 28.7234C19.7946 28.7234 19.999 28.6823 20.1895 28.6025C20.3801 28.5228 20.553 28.4059 20.6984 28.2586L28.517 20.4014C28.6594 20.252 28.771 20.0758 28.8454 19.8829C29.0018 19.5003 29.0018 19.0712 28.8454 18.6886Z" fill="white"/>
</svg>
