<svg width="23" height="21" viewBox="0 0 23 21" fill="none" xmlns="http://www.w3.org/2000/svg">
<path d="M0.675724 11.1175C0.764408 11.317 0.897387 11.4992 1.06703 11.6538L10.3837 19.7788C10.5574 19.9303 10.7637 20.0505 10.9907 20.1325C11.2177 20.2144 11.461 20.2567 11.7067 20.2567C12.2029 20.2567 12.6788 20.0847 13.0296 19.7788C13.2034 19.6272 13.3412 19.4474 13.4352 19.2494C13.5292 19.0514 13.5776 18.8393 13.5776 18.625C13.5776 18.1923 13.3805 17.7772 13.0296 17.4713L6.88062 12.125L21.0233 12.125C21.5175 12.125 21.9915 11.9538 22.3409 11.6491C22.6903 11.3443 22.8867 10.931 22.8867 10.5C22.8867 10.069 22.6903 9.6557 22.3409 9.35096C21.9915 9.04621 21.5175 8.875 21.0233 8.875L6.88062 8.875L13.0296 3.52875C13.2043 3.37769 13.3429 3.19796 13.4375 2.99994C13.5321 2.80192 13.5808 2.58952 13.5808 2.375C13.5808 2.16049 13.5321 1.94809 13.4375 1.75007C13.3429 1.55205 13.2043 1.37232 13.0296 1.22126C12.8564 1.06895 12.6503 0.948054 12.4233 0.865555C12.1962 0.783056 11.9526 0.740582 11.7067 0.740582C11.4607 0.740582 11.2171 0.783056 10.9901 0.865555C10.763 0.948054 10.5569 1.06895 10.3837 1.22126L1.06703 9.34625C0.897387 9.5008 0.764408 9.68303 0.675724 9.8825C0.489357 10.2781 0.489357 10.7219 0.675724 11.1175Z" fill="#3785CC"/>
</svg>
