<svg width="74" height="74" viewBox="0 0 74 74" fill="none" xmlns="http://www.w3.org/2000/svg">
<path d="M65.2645 15.6762L47.0684 9.58094H46.8561C46.7149 9.56668 46.5727 9.56668 46.4315 9.58094H45.734H45.3398H45.1275L27.9019 15.5238L10.6762 9.58094C10.2202 9.42982 9.73491 9.38969 9.26039 9.46387C8.78587 9.53804 8.33567 9.7244 7.94683 10.0076C7.55488 10.288 7.23496 10.6582 7.01348 11.0874C6.792 11.5166 6.67533 11.9927 6.67311 12.4762V55.1428C6.67146 55.7818 6.86968 56.405 7.23974 56.9246C7.60979 57.4441 8.13297 57.8336 8.73533 58.0381L26.9314 64.1333C27.5423 64.3335 28.2007 64.3335 28.8117 64.1333L46.0979 58.3428L63.3236 64.2857C63.6456 64.3296 63.972 64.3296 64.294 64.2857C64.9281 64.2947 65.5471 64.0909 66.053 63.7067C66.4449 63.4262 66.7649 63.0561 66.9863 62.6269C67.2078 62.1976 67.3245 61.7216 67.3267 61.2381V18.5714C67.3283 17.9325 67.1301 17.3092 66.7601 16.7897C66.39 16.2702 65.8668 15.8806 65.2645 15.6762ZM24.8692 57.0019L12.7385 52.9486V16.7124L24.8692 20.7657V57.0019ZM43.0653 52.9486L30.9345 57.0019V20.7657L43.0653 16.7124V52.9486ZM61.2613 57.0019L49.1306 52.9486V16.7124L61.2613 20.7657V57.0019Z" fill="white"/>
</svg>
