<svg width="38" height="29" viewBox="0 0 38 29" fill="none" xmlns="http://www.w3.org/2000/svg">
<path d="M36.4057 3.30122L25.3977 0.0809871H25.2693C25.1839 0.0734544 25.0979 0.0734544 25.0125 0.0809871H24.5905H24.352H24.2236L13.8027 3.22072L3.38176 0.0809871C3.10585 0.00114385 2.81228 -0.0200553 2.52522 0.0191341C2.23815 0.0583236 1.96579 0.156781 1.73056 0.306404C1.49344 0.454561 1.2999 0.650104 1.16591 0.87688C1.03192 1.10365 0.961344 1.35515 0.959998 1.6106V24.1522C0.959005 24.4898 1.07892 24.8191 1.30279 25.0936C1.52666 25.3681 1.84317 25.5738 2.20757 25.6819L13.2156 28.9021C13.5852 29.0079 13.9835 29.0079 14.3531 28.9021L24.8107 25.8429L35.2316 28.9826C35.4264 29.0058 35.6238 29.0058 35.8187 28.9826C36.2023 28.9873 36.5767 28.8797 36.8828 28.6767C37.1199 28.5285 37.3134 28.333 37.4474 28.1062C37.5814 27.8794 37.652 27.6279 37.6533 27.3725V4.83083C37.6543 4.49328 37.5344 4.164 37.3105 3.88951C37.0867 3.61503 36.7701 3.40924 36.4057 3.30122ZM11.968 25.1344L4.62933 22.993V3.84866L11.968 5.99012V25.1344ZM22.976 22.993L15.6373 25.1344V5.99012L22.976 3.84866V22.993ZM33.984 25.1344L26.6453 22.993V3.84866L33.984 5.99012V25.1344Z" fill="#3785CC"/>
</svg>
