<svg width="42" height="52" viewBox="0 0 42 52" fill="none" xmlns="http://www.w3.org/2000/svg">
<g clip-path="url(#clip0_802_3088)">
<path d="M20.9986 51.5C20.7149 51.5 20.1691 51.3271 19.3701 50.8965C18.5963 50.4795 17.6544 49.8596 16.6052 49.0589C14.5082 47.4584 12.0133 45.1587 9.61985 42.3782C4.81939 36.8017 0.5 29.3784 0.5 21.8495C0.5 10.0408 9.6946 0.5 20.9986 0.5C32.3028 0.5 41.5 10.0409 41.5 21.8495C41.5 29.3783 37.18 36.8017 32.3788 42.3782C29.985 45.1586 27.4898 47.4584 25.3925 49.0589C24.3432 49.8596 23.4011 50.4794 22.6273 50.8965C21.8282 51.3271 21.2823 51.5 20.9986 51.5Z" fill="#CBD9FF" stroke="black"/>
<g clip-path="url(#clip1_802_3088)">
<path fill-rule="evenodd" clip-rule="evenodd" d="M25.1163 15.4312H27.9767V19.9817H25.1163V15.4312ZM14.3721 27.6147H22.7442V30.7706H14.3721V27.6147ZM14.0233 15.578H23.1628V12.055H14.0233V15.578ZM14.0233 19.7615H23.1628V16.4587H14.0233V19.7615ZM23.1628 20.6422H14.0233V24.1651H23.1628V20.6422ZM19.186 12.789H20.3721V14.9174H19.186V12.789ZM17.0233 12.789H18.2093V14.9174H17.0233V12.789ZM14.8605 12.789H16.0465V14.9174H14.8605V12.789ZM21.3488 12.789H22.5349V14.9174H21.3488V12.789ZM19.186 17.0459H20.3721V19.1743H19.186V17.0459ZM17.0233 17.0459H18.2093V19.1743H17.0233V17.0459ZM14.8605 17.0459H16.0465V19.1743H14.8605V17.0459ZM21.3488 17.0459H22.5349V19.1743H21.3488V17.0459ZM19.186 21.3028H20.3721V23.4312H19.186V21.3028ZM17.0233 21.3028H18.2093V23.4312H17.0233V21.3028ZM14.8605 21.3028H16.0465V23.4312H14.8605V21.3028ZM21.3488 21.3028H22.5349V23.4312H21.3488V21.3028ZM19.7442 28.5688V29.8165H17.7209V28.5688H19.7442ZM12 10H30V33.1193H29.2326V34H27.1395V33.1193H14.8605V34H12.7674V33.1193H12V10Z" fill="#232532"/>
</g>
</g>
<defs>
<clipPath id="clip0_802_3088">
<rect width="42" height="52" fill="white"/>
</clipPath>
<clipPath id="clip1_802_3088">
<rect width="18" height="24" fill="white" transform="translate(12 10)"/>
</clipPath>
</defs>
</svg>
