<svg width="36" height="36" viewBox="0 0 36 36" fill="none" xmlns="http://www.w3.org/2000/svg">
<path d="M24.285 3H11.715C6.255 3 3 6.255 3 11.715L3 24.27C3 29.745 6.255 33 11.715 33H24.27C29.73 33 32.985 29.745 32.985 24.285L32.985 11.715C33 6.255 29.745 3 24.285 3ZM25.17 14.55L16.665 23.055C16.455 23.265 16.17 23.385 15.87 23.385C15.57 23.385 15.285 23.265 15.075 23.055L10.83 18.81C10.395 18.375 10.395 17.655 10.83 17.22C11.265 16.785 11.985 16.785 12.42 17.22L15.87 20.67L23.58 12.96C24.015 12.525 24.735 12.525 25.17 12.96C25.605 13.395 25.605 14.1 25.17 14.55Z" fill="#469D3E"/>
</svg>
